PathFileType	4	(X/Y/Z)	/Users/niels/Desktop/University/Third Semester/Perception and Action/Exam/Gymnastics Motion Tracking/Code for Gym Tracking/Analyzed Data/Webcam_Backflip/id7_5_baseline_Sports2D/id7_5_baseline_Sports2D_px_person00.trc
DataRate	CameraRate	NumFrames	NumMarkers	Units	OrigDataRate	OrigDataStartFrame	OrigNumFrames
29.8125	29.8125	8	22	m	29.8125	20	160
Frame#	Time	Hip			RHip			RKnee			RAnkle			RBigToe			RSmallToe			RHeel			LHip			LKnee			LAnkle			LBigToe			LSmallToe			LHeel			Neck			Head			Nose			RShoulder			RElbow			RWrist			LShoulder			LElbow			LWrist		
		X1	Y1	Z1	X2	Y2	Z2	X3	Y3	Z3	X4	Y4	Z4	X5	Y5	Z5	X6	Y6	Z6	X7	Y7	Z7	X8	Y8	Z8	X9	Y9	Z9	X10	Y10	Z10	X11	Y11	Z11	X12	Y12	Z12	X13	Y13	Z13	X14	Y14	Z14	X15	Y15	Z15	X16	Y16	Z16	X17	Y17	Z17	X18	Y18	Z18	X19	Y19	Z19	X20	Y20	Z20	X21	Y21	Z21	X22	Y22	Z22
20	0.670859538784067	0.9464503444366184	-0.4530897028745679	0.0	0.9515893718828646	-0.4538480574458268	0.0	0.9942639486137828	-0.3684077328456459	0.0	1.0395896698981801	-0.4489769195067171	0.0	1.0675654089972682	-0.4373819955903177	0.0	1.0702710999281029	-0.44383096328986765	0.0	1.0390419106906565	-0.46566469926585474	0.0	0.9395302116735107	-0.45225877182433066	0.0	0.9831048502700573	-0.3760456181661243	0.0	1.0329071712457942	-0.4437706907748895	0.0	1.0601642628159116	-0.4356686844624454	0.0	1.0553840583325467	-0.4396503834885739	0.0	1.0326808371301086	-0.46288735799532993	0.0	0.8357748674527469	-0.38006727039663163	0.0	0.7747955346534052	-0.3460425778274766	0.0	0.8188611128998662	-0.3405481776008591	0.0	0.8569557131961014	-0.37384017090229393	0.0	0.9244731291583334	-0.3446473738751579	0.0	0.9659545369428789	-0.2946762963982879	0.0	0.8371474597272671	-0.3951289559980706	0.0	0.9069468763761549	-0.3689325210345532	0.0	0.9386176381278668	-0.33117154674315613	0.0
21	0.7044025157232703	0.9561434731189421	-0.42902074544742674	0.0	0.961895171087447	-0.4282031951796727	0.0	0.9711081003534029	-0.33253137362985014	0.0	1.0375467537476684	-0.3882519451707893	0.0	1.0605496868955593	-0.3621633705659699	0.0	1.0659726422534037	-0.36917795730044356	0.0	1.0412086917684622	-0.4034662692252121	0.0	0.9485721324151041	-0.4290232582685273	0.0	0.9583038289266681	-0.3428161071950073	0.0	1.0291713703285563	-0.3848319308425739	0.0	1.051400579979545	-0.3644901368401762	0.0	1.047494994120059	-0.368078437572553	0.0	1.03490219167341	-0.40141661178213384	0.0	0.8357666850567533	-0.3871608753865558	0.0	0.7722039462828184	-0.368351626937118	0.0	0.8119228400255114	-0.3548270287787378	0.0	0.8574333075308604	-0.3764235105381529	0.0	0.9213359232232985	-0.34053559146485135	0.0	0.9574349158474563	-0.29012952030251343	0.0	0.841669492698141	-0.4002727879502143	0.0	0.9022412207675754	-0.3680362971347903	0.0	0.928838322791857	-0.3329336867006853	0.0
22	0.7379454926624737	0.9647042800013577	-0.40360800645413625	0.0	0.9703311042379051	-0.4011146890792222	0.0	0.9449512899503425	-0.31020372414053005	0.0	1.0245681623068759	-0.3355982196647464	0.0	1.0374945386832874	-0.298812830118592	0.0	1.0454616909091154	-0.3054381126219505	0.0	1.0317326498212092	-0.347461404382078	0.0	0.9569589391791662	-0.40442073184817606	0.0	0.9311847002691761	-0.3219192913603909	0.0	1.0150428186769924	-0.33376189281668467	0.0	1.0286189475411205	-0.303917746897765	0.0	1.0253842341524508	-0.3068636027255975	0.0	1.0256792386468967	-0.3454776884955935	0.0	0.8413224875495638	-0.399119878836345	0.0	0.7784833359924699	-0.39797708746830057	0.0	0.8112264339353757	-0.37667906904326737	0.0	0.8622704677821855	-0.38391743500801806	0.0	0.9186534405747281	-0.3392331131377643	0.0	0.9447546617958663	-0.2869351937305959	0.0	0.8509432538553089	-0.40861009454341307	0.0	0.8997860898418286	-0.36875341086894986	0.0	0.9190810160527448	-0.33828445802869894	0.0
23	0.771488469601677	0.9701164954138304	-0.3777275813634464	0.0	0.9748208270204702	-0.37401221283329383	0.0	0.9184201119508277	-0.30134386215635944	0.0	1.000799719483431	-0.293969317208542	0.0	0.9997954869835665	-0.25251018485498755	0.0	1.0097636403998311	-0.25777807159029004	0.0	1.0102035077769278	-0.3009175300460724	0.0	0.9627653008970631	-0.3791249780134279	0.0	0.9050159633785152	-0.31301245637432973	0.0	0.9910749600703141	-0.2931757451320466	0.0	0.9931173529814641	-0.25835977799195575	0.0	0.9908428533522086	-0.26066215079474747	0.0	1.0047042058004838	-0.29825604747678136	0.0	0.8533759445399349	-0.4137713248834167	0.0	0.7954299642599	-0.431286752436355	0.0	0.8186794177984074	-0.4035342192584274	0.0	0.8721227095908285	-0.3944782518593236	0.0	0.9160544568615806	-0.3401784932055308	0.0	0.9289501524966255	-0.2858856146237662	0.0	0.8652063735006588	-0.41835321004831066	0.0	0.9007293371077723	-0.36991230393586816	0.0	0.911921182646912	-0.34942209153793774	0.0
24	0.8050314465408803	0.9710393756255818	-0.3531811098930011	0.0	0.9742380656813671	-0.34905219166519025	0.0	0.8941350434541617	-0.30474573237704833	0.0	0.9676526467523687	-0.26576665174676517	0.0	0.9514296853508927	-0.22672962946957306	0.0	0.9626252326302125	-0.22978859986047334	0.0	0.9776341683381574	-0.26683417053806524	0.0	0.9646476217665435	-0.3548966454172086	0.0	0.8829274428447804	-0.3148436274526997	0.0	0.9587577943151935	-0.26515076431489276	0.0	0.9481544882663059	-0.23105671371192402	0.0	0.9472718532155666	-0.2329454433928837	0.0	0.9731792955543731	-0.2627179584468174	0.0	0.8721546345793737	-0.42839233433568097	0.0	0.8233792371770859	-0.46349133382621627	0.0	0.8354475522052842	-0.4316533177128194	0.0	0.8870687795382644	-0.4057708327934448	0.0	0.9137630146515708	-0.34325107503973235	0.0	0.9119160733525896	-0.289071770929838	0.0	0.884402946702895	-0.4276522633189571	0.0	0.906020210597113	-0.3710993351916188	0.0	0.9099093265820234	-0.36750678237007717	0.0
25	0.8385744234800837	0.9671276187236213	-0.33219984025697097	0.0	0.9685928354206356	-0.3284768772449732	0.0	0.8745051969320474	-0.3180592903547869	0.0	0.9278176713060647	-0.2526245161776928	0.0	0.8982364036397497	-0.22298789845113914	0.0	0.9096766303683362	-0.22320283316010922	0.0	0.9364770854679819	-0.24764379040820989	0.0	0.9621910671367134	-0.33407480643133547	0.0	0.8671139520318353	-0.32529860321504467	0.0	0.9204692725897587	-0.25148010294648804	0.0	0.8982861428982832	-0.2239448152239365	0.0	0.8989618451798119	-0.22587673860511875	0.0	0.9336331960570607	-0.2416218263177857	0.0	0.8966545003757709	-0.4401804071073176	0.0	0.8606582536123549	-0.4897129357121617	0.0	0.8612976900291055	-0.45672422047627664	0.0	0.9063607453929386	-0.4154281285514242	0.0	0.9125933939453058	-0.34857004430385075	0.0	0.8958259750297679	-0.2990344949756824	0.0	0.9078593449548443	-0.4347593654462766	0.0	0.9167001505828815	-0.3730898907590887	0.0	0.9155133770917018	-0.3905372548464106	0.0
26	0.8721174004192871	0.9589795634835667	-0.3168066868208239	0.0	0.9587116138860905	-0.3141236405803779	0.0	0.8611048316387068	-0.33807287006533515	0.0	0.8850964480523456	-0.25550016672486126	0.0	0.8467818610294026	-0.24093136130512527	0.0	0.8571289874836704	-0.23803595670178268	0.0	0.8906156130769167	-0.24516490880977096	0.0	0.9559140819292873	-0.31888634927119985	0.0	0.8581462402722454	-0.34170702309214734	0.0	0.8798114636335748	-0.2537676904249558	0.0	0.8489492001011064	-0.2377139698235845	0.0	0.8510736001552299	-0.24018864885881738	0.0	0.8899190546887706	-0.23752748704817428	0.0	0.9246183501516835	-0.44691856183151446	0.0	0.9037465706254876	-0.5064279353430589	0.0	0.8942497730890646	-0.47508278789341035	0.0	0.9284841371832345	-0.421678822895853	0.0	0.9135186948948962	-0.35615541657571687	0.0	0.8832050220820492	-0.31711688627640294	0.0	0.9340870452647121	-0.43819438061135957	0.0	0.9337874539700552	-0.3770565572290869	0.0	0.9309848522068354	-0.4138968442855564	0.0
27	0.9056603773584905	0.9477459315177773	-0.3084237874063977	0.0	0.9458133776749725	-0.307148891530592	0.0	0.8541154185492011	-0.3616464202329303	0.0	0.843853456578156	-0.274782837882521	0.0	0.8031138766583228	-0.27851373694264364	0.0	0.810772192312442	-0.27278740894083353	0.0	0.8449333966535795	-0.2605312552184518	0.0	0.946852456574762	-0.3109078462911558	0.0	0.8550394760710494	-0.3616774793930042	0.0	0.8414252412129084	-0.2729039716504818	0.0	0.8061036267040342	-0.27151018877563476	0.0	0.8094654600664842	-0.2745868131536433	0.0	0.8469332139318188	-0.2523066699960703	0.0	0.9530747218595959	-0.4475930462724714	0.0	0.9480900828431412	-0.5123513961307393	0.0	0.9307584656374077	-0.48470158404804636	0.0	0.9514280674543707	-0.4238113346833115	0.0	0.9172051791483495	-0.36580854602673624	0.0	0.8768120562321149	-0.34246727691877815	0.0	0.9607854552248661	-0.436995784206767	0.0	0.9571800923732412	-0.38342122078869745	0.0	0.9574795006620415	-0.4322834326183802	0.0
